<?xml version="1.0" encoding="UTF-8"?>
<svg xmlns="http://www.w3.org/2000/svg" xmlns:xlink="http://www.w3.org/1999/xlink" width="480pt" height="480pt" viewBox="0 0 480 480" version="1.1">
<g id="surface10574889">
<path style=" stroke:none;fill-rule:nonzero;fill:rgb(7.843138%,36.078432%,25.098041%);fill-opacity:1;" d="M 220 60 L 220 163.164062 C 213.058594 160.34375 198.082031 160 190.703125 160 C 135.183594 160 83.789062 186.121094 83.789062 260 C 83.789062 348.398438 153.398438 360 200 360 C 218.398438 360 260 358.183594 280 352.382812 L 280 60 Z M 320 60 L 320 120 L 380 120 L 380 60 Z M 320 160 L 320 334.023438 C 320 364.34375 301.558594 395.902344 260 414.023438 L 317.1875 439.921875 C 375.308594 419.921875 380 354.023438 380 334.023438 L 380 160 Z M 199.414062 211.015625 C 205.8125 211.015625 213 212.1875 220 213.789062 L 220 307.851562 C 213 309.453125 205.8125 310.664062 199.414062 310.664062 C 173.214844 310.664062 147.8125 302.398438 147.8125 260 C 147.8125 217.601562 173.214844 211.015625 199.414062 211.015625 Z M 199.414062 211.015625 "/>
</g>
</svg>
