<?xml version="1.0" encoding="UTF-8"?>
<svg xmlns="http://www.w3.org/2000/svg" xmlns:xlink="http://www.w3.org/1999/xlink" width="500pt" height="500pt" viewBox="0 0 500 500" version="1.1">
<g id="surface21375279">
<path style=" stroke:none;fill-rule:nonzero;fill:rgb(20.392157%,59.607846%,85.882354%);fill-opacity:1;" d="M 311.679688 80 C 306.992188 79.882812 302.890625 81.679688 300.78125 86.875 C 297.1875 95.585938 306.132812 104.101562 309.335938 108.554688 C 311.5625 111.640625 314.453125 115.117188 316.054688 118.59375 C 317.109375 120.898438 317.265625 123.203125 318.164062 125.625 C 320.390625 131.601562 323.945312 138.398438 326.796875 143.945312 C 328.242188 146.757812 329.84375 149.6875 331.679688 152.1875 C 332.8125 153.710938 334.726562 154.414062 335.039062 156.757812 C 333.164062 159.414062 333.046875 163.515625 331.992188 166.875 C 327.226562 181.914062 329.023438 200.625 335.9375 211.71875 C 338.085938 215.15625 343.125 222.460938 350 219.6875 C 356.015625 217.226562 354.6875 209.609375 356.40625 202.851562 C 356.796875 201.367188 356.5625 200.234375 357.34375 199.21875 L 357.34375 199.53125 C 359.140625 203.203125 360.976562 206.875 362.8125 210.507812 C 366.914062 217.070312 374.140625 223.90625 380.234375 228.554688 C 383.398438 230.9375 385.898438 235.078125 390 236.484375 L 390 236.171875 L 389.6875 236.171875 C 388.90625 234.921875 387.65625 234.414062 386.640625 233.4375 C 384.257812 231.09375 381.601562 228.164062 379.648438 225.46875 C 374.0625 217.929688 369.140625 209.648438 364.6875 201.054688 C 362.539062 196.953125 360.664062 192.421875 358.867188 188.242188 C 358.164062 186.601562 358.164062 184.179688 356.71875 183.320312 C 354.726562 186.40625 351.835938 188.867188 350.3125 192.5 C 347.890625 198.28125 347.539062 205.351562 346.640625 212.65625 C 346.09375 212.851562 346.328125 212.695312 346.054688 212.96875 C 341.796875 211.914062 340.273438 207.539062 338.710938 203.789062 C 334.726562 194.296875 333.945312 178.984375 337.5 168.085938 C 338.398438 165.234375 342.5 156.328125 340.859375 153.710938 C 340.078125 151.09375 337.421875 149.609375 335.976562 147.617188 C 334.140625 145.15625 332.34375 141.914062 331.09375 139.0625 C 327.8125 131.640625 324.726562 123.046875 321.25 115.546875 C 319.609375 111.953125 316.835938 108.359375 314.53125 105.15625 C 311.992188 101.640625 309.179688 99.0625 307.1875 94.765625 C 306.523438 93.28125 305.546875 90.859375 306.601562 89.296875 C 306.914062 88.242188 307.382812 87.8125 308.4375 87.460938 C 310.195312 86.09375 315.117188 87.890625 316.992188 88.671875 C 321.875 90.703125 325.976562 92.65625 330.117188 95.390625 C 332.109375 96.71875 334.101562 99.257812 336.523438 100 L 339.257812 100 C 343.59375 100.976562 348.398438 100.273438 352.382812 101.523438 C 359.492188 103.671875 365.859375 107.03125 371.601562 110.664062 C 389.21875 121.757812 403.632812 137.578125 413.4375 156.445312 C 415.039062 159.492188 415.742188 162.421875 417.148438 165.625 C 419.921875 172.109375 423.476562 178.828125 426.289062 185.15625 C 429.0625 191.523438 431.796875 197.890625 435.742188 203.164062 C 437.8125 205.9375 445.859375 207.460938 449.492188 208.984375 C 452.03125 210.078125 456.25 211.210938 458.632812 212.65625 C 463.28125 215.429688 467.734375 218.75 472.070312 221.835938 C 474.257812 223.359375 480.898438 226.679688 481.25 229.453125 C 470.507812 229.179688 462.304688 230.15625 455.3125 233.125 C 453.320312 233.984375 450.117188 233.984375 449.804688 236.484375 C 450.859375 237.617188 451.054688 239.335938 451.914062 240.742188 C 453.59375 243.4375 456.40625 247.070312 458.945312 248.984375 C 461.71875 251.054688 464.53125 253.28125 467.5 255.117188 C 472.734375 258.28125 478.59375 260.117188 483.671875 263.320312 C 486.640625 265.234375 489.648438 267.617188 492.539062 269.726562 C 493.984375 270.820312 494.921875 272.460938 496.796875 273.125 L 496.796875 272.8125 C 495.820312 271.5625 495.585938 269.84375 494.6875 268.554688 L 490.664062 264.53125 C 486.796875 259.414062 481.875 254.882812 476.640625 251.132812 C 472.460938 248.125 463.125 244.0625 461.40625 239.21875 L 461.09375 238.90625 C 464.023438 238.59375 467.5 237.5 470.234375 236.757812 C 474.84375 235.546875 478.90625 235.859375 483.632812 234.648438 C 485.78125 234.023438 487.929688 233.398438 490.078125 232.8125 L 490.078125 231.5625 C 487.695312 229.140625 485.976562 225.859375 483.359375 223.632812 C 476.523438 217.8125 469.0625 211.992188 461.367188 207.148438 C 457.109375 204.453125 451.835938 202.695312 447.34375 200.429688 C 445.820312 199.648438 443.164062 199.257812 442.148438 197.96875 C 439.765625 194.960938 438.476562 191.132812 436.640625 187.617188 C 432.8125 180.234375 429.0625 172.1875 425.664062 164.414062 C 423.359375 159.140625 421.835938 153.90625 418.945312 149.140625 C 405.078125 126.367188 390.15625 112.578125 367.03125 99.0625 C 362.109375 96.171875 356.210938 95.078125 349.960938 93.59375 C 346.5625 93.359375 343.242188 93.164062 339.84375 92.96875 C 337.8125 92.109375 335.664062 89.609375 333.75 88.359375 C 328.945312 85.351562 319.492188 80.117188 311.679688 80 Z M 344.765625 113.125 C 342.539062 113.085938 340.9375 113.398438 339.257812 113.75 L 339.257812 114.0625 L 339.570312 114.0625 C 340.625 116.25 342.539062 117.65625 343.867188 119.53125 C 344.882812 121.679688 345.859375 123.828125 346.875 125.976562 L 347.1875 125.664062 C 349.0625 124.335938 349.960938 122.1875 349.960938 118.945312 C 349.179688 118.164062 349.0625 117.148438 348.4375 116.210938 C 347.539062 114.921875 345.859375 114.21875 344.765625 113.125 Z M 18.671875 239.960938 C 15.664062 240.078125 12.382812 240.664062 8.828125 241.796875 C 2.890625 243.59375 -0.0390625 247.148438 -0.0390625 254.375 L -0.0390625 330 L 20 330 L 20 256.210938 L 47.773438 319.296875 C 51.210938 327.148438 55.898438 329.960938 65.078125 329.960938 C 74.296875 329.960938 78.789062 327.148438 82.226562 319.296875 L 110 257.8125 L 110 330 L 130 330 L 130 254.375 C 130 247.148438 127.109375 243.59375 121.132812 241.796875 C 106.914062 237.304688 97.34375 241.171875 93.046875 250.898438 L 64.53125 315.039062 L 36.953125 250.898438 C 33.828125 243.59375 27.578125 239.609375 18.671875 239.960938 Z M 262.460938 240 C 254.570312 240 230 240.9375 230 260 L 230 272.34375 C 230 281.09375 237.695312 288.242188 254.375 290 C 256.25 290.117188 258.125 290.273438 260 290.273438 C 260 290.273438 279.453125 289.882812 280 290 C 291.25 290 290 298.75 290 300 L 290 310 C 290 311.367188 289.6875 320 279.882812 320 L 230 320 L 230 330 L 280.078125 330 C 286.640625 330 293.007812 328.632812 298.085938 326.25 C 306.523438 322.382812 310 317.148438 310 310.273438 L 310 295.976562 C 310 280.625 290.9375 280 280 280 L 260 280 C 252.148438 280 250.9375 275.234375 250 270 L 250 260 C 250.9375 256.015625 252.695312 250.625 259.648438 250 L 310 250 L 310 240 Z M 339.804688 240 C 325.039062 242.03125 319.84375 249.375 319.84375 260 L 319.84375 310 C 319.84375 319.726562 325.273438 325.585938 336.445312 328.632812 C 340.195312 329.6875 343.59375 330.117188 346.796875 330.117188 L 369.0625 330 L 382.148438 330 L 393.28125 340 L 415.78125 340 L 400.3125 326.054688 C 407.578125 323.046875 409.84375 318.4375 409.84375 309.804688 L 409.84375 260 C 409.84375 249.375 402.929688 242.03125 388.164062 240 Z M 420 240 L 420 309.570312 C 420 321.640625 426.835938 328.4375 444.921875 329.804688 C 446.601562 329.882812 448.320312 330 450 330 L 500 330 L 500 320 L 453.789062 320 C 443.476562 320 440 315.664062 440 309.492188 L 440 240 Z M 351.71875 250 L 377.460938 250 C 384.257812 250 388.828125 255.46875 389.84375 260 C 389.84375 260 390 306.5625 390 310 C 390 313.4375 388.085938 315 388.085938 315 L 382.65625 310 L 360 310 L 371.132812 320 L 351.71875 320 C 344.765625 320 340.859375 314.84375 339.84375 310 L 339.84375 261.015625 C 339.84375 255.703125 343.90625 250 351.71875 250 Z M 140 270 C 140.390625 270.390625 140 312.617188 140 313.4375 C 140.15625 322.1875 151.25 329.84375 168.632812 330 L 200 330 L 200 330.664062 C 200 332.539062 201.367188 338.789062 190 340 C 189.882812 340 140.117188 340 140 340 L 140 350 L 192.148438 350 C 200.976562 349.726562 220.117188 347.734375 220 332.421875 C 220 332.148438 220.078125 270 220 270 L 200 270 L 200 320 C 199.6875 320 175.234375 320.078125 170.3125 320 C 160.664062 319.84375 159.84375 314.335938 160 312.226562 L 160 270 Z M 140 270 "/>
</g>
</svg>
