<?xml version="1.0" encoding="UTF-8"?>
<svg xmlns="http://www.w3.org/2000/svg" xmlns:xlink="http://www.w3.org/1999/xlink" width="512pt" height="512pt" viewBox="0 0 512 512" version="1.1">
<g id="surface1038360">
<path style=" stroke:none;fill-rule:nonzero;fill:rgb(94.509804%,35.294119%,14.117648%);fill-opacity:1;" d="M 44.472656 182.695312 C 4.039062 299.527344 65.976562 427.023438 182.816406 467.457031 C 299.65625 507.886719 427.152344 445.960938 467.585938 329.121094 C 508.015625 212.28125 446.078125 84.792969 329.246094 44.359375 C 212.414062 3.929688 84.910156 65.855469 44.472656 182.695312 Z M 44.472656 182.695312 "/>
<path style=" stroke:none;fill-rule:nonzero;fill:rgb(94.509804%,35.294119%,14.117648%);fill-opacity:1;" d="M 385.96875 385.960938 C 314.144531 457.761719 197.710938 457.742188 125.910156 385.921875 C 54.113281 314.097656 54.136719 197.664062 125.960938 125.863281 C 197.785156 54.0625 314.214844 54.078125 386.015625 125.902344 C 400.472656 140.367188 412.425781 157.144531 421.359375 175.542969 C 455.625 246.054688 441.414062 330.535156 385.96875 385.960938 Z M 385.96875 385.960938 "/>
<path style=" stroke:none;fill-rule:nonzero;fill:rgb(94.509804%,35.294119%,14.117648%);fill-opacity:1;" d="M 464.511719 154.585938 C 408.550781 39.40625 269.824219 -8.59375 154.640625 47.359375 C 99.328125 74.230469 56.960938 121.976562 36.855469 180.089844 C -5.097656 301.097656 58.992188 433.199219 180.007812 475.144531 C 301.023438 517.089844 433.121094 453 475.070312 331.992188 C 495.425781 273.832031 491.625 209.929688 464.511719 154.585938 Z M 459.960938 326.480469 C 420.910156 439.121094 297.945312 498.785156 185.296875 459.742188 C 72.648438 420.703125 12.984375 297.734375 52.023438 185.089844 C 91.0625 72.441406 214.039062 12.777344 326.6875 51.824219 C 380.777344 70.574219 425.207031 110.039062 450.199219 161.542969 C 475.199219 213.046875 478.703125 272.382812 459.960938 326.480469 Z M 459.960938 326.480469 "/>
<path style=" stroke:none;fill-rule:nonzero;fill:rgb(94.509804%,35.294119%,14.117648%);fill-opacity:1;" d="M 369.007812 369 C 365.886719 372.121094 365.886719 377.183594 369.007812 380.304688 L 380.3125 391.609375 C 383.433594 394.726562 388.496094 394.726562 391.617188 391.609375 C 394.734375 388.488281 394.734375 383.425781 391.617188 380.304688 L 380.3125 369 C 377.191406 365.878906 372.136719 365.878906 369.007812 369 Z M 369.007812 369 "/>
<path style=" stroke:none;fill-rule:nonzero;fill:rgb(94.509804%,35.294119%,14.117648%);fill-opacity:1;" d="M 403.382812 335.527344 C 399.480469 333.457031 394.640625 334.945312 392.574219 338.839844 C 390.609375 342.550781 391.847656 347.160156 395.414062 349.375 L 409.265625 357.34375 C 413.121094 359.542969 418.03125 358.199219 420.230469 354.34375 C 422.433594 350.488281 421.089844 345.574219 417.230469 343.375 Z M 403.382812 335.527344 "/>
<path style=" stroke:none;fill-rule:nonzero;fill:rgb(94.509804%,35.294119%,14.117648%);fill-opacity:1;" d="M 302.695312 407.273438 C 298.433594 408.40625 295.886719 412.792969 297.03125 417.054688 C 297.039062 417.070312 297.039062 417.089844 297.046875 417.113281 L 301.175781 432.542969 C 302.496094 436.761719 306.984375 439.105469 311.191406 437.785156 C 315.160156 436.542969 317.511719 432.472656 316.609375 428.414062 L 312.480469 412.984375 C 311.367188 408.710938 307 406.152344 302.726562 407.265625 C 302.710938 407.273438 302.703125 407.273438 302.695312 407.273438 Z M 302.695312 407.273438 "/>
<path style=" stroke:none;fill-rule:nonzero;fill:rgb(94.509804%,35.294119%,14.117648%);fill-opacity:1;" d="M 417.121094 297.03125 C 412.808594 296.070312 408.535156 298.785156 407.574219 303.097656 C 406.671875 307.152344 409.023438 311.222656 412.992188 312.464844 L 428.425781 316.59375 C 432.734375 317.550781 437.007812 314.839844 437.96875 310.527344 C 438.871094 306.472656 436.519531 302.398438 432.550781 301.160156 Z M 417.121094 297.03125 "/>
<path style=" stroke:none;fill-rule:nonzero;fill:rgb(94.509804%,35.294119%,14.117648%);fill-opacity:1;" d="M 338.367188 392.519531 C 334.566406 394.742188 333.28125 399.625 335.488281 403.433594 L 343.398438 417.222656 C 345.472656 421.128906 350.3125 422.609375 354.207031 420.535156 C 358.113281 418.464844 359.59375 413.625 357.519531 409.726562 C 357.433594 409.566406 357.34375 409.40625 357.246094 409.257812 L 349.28125 395.40625 C 347.054688 391.601562 342.175781 390.3125 338.367188 392.519531 Z M 338.367188 392.519531 "/>
<path style=" stroke:none;fill-rule:nonzero;fill:rgb(94.509804%,35.294119%,14.117648%);fill-opacity:1;" d="M 252.71875 82.320312 C 257.097656 81.710938 260.144531 77.671875 259.535156 73.304688 C 259.0625 69.910156 256.480469 67.191406 253.113281 66.550781 C 246.433594 66.457031 239.753906 66.71875 233.097656 67.34375 C 228.679688 67.488281 225.222656 71.191406 225.375 75.601562 C 225.519531 80.015625 229.222656 83.472656 233.632812 83.320312 C 233.960938 83.3125 234.296875 83.28125 234.625 83.222656 C 240.640625 82.601562 246.679688 82.296875 252.71875 82.320312 Z M 252.71875 82.320312 "/>
<path style=" stroke:none;fill-rule:nonzero;fill:rgb(94.509804%,35.294119%,14.117648%);fill-opacity:1;" d="M 91.601562 195.382812 C 109.320312 144.519531 150.296875 105.183594 201.839844 89.550781 C 206.070312 88.289062 208.472656 83.832031 207.207031 79.601562 C 205.945312 75.367188 201.488281 72.96875 197.257812 74.230469 C 140.960938 91.359375 96.207031 134.304688 76.785156 189.847656 C 75.214844 193.976562 77.289062 198.59375 81.414062 200.160156 C 85.542969 201.726562 90.160156 199.65625 91.726562 195.527344 C 91.785156 195.390625 91.832031 195.246094 91.871094 195.105469 Z M 91.601562 195.382812 "/>
<path style=" stroke:none;fill-rule:nonzero;fill:rgb(100%,97.254902%,93.333334%);fill-opacity:1;" d="M 336.070312 185.65625 C 335.40625 183.121094 334.328125 180.929688 332.808594 179.175781 L 242.671875 270.246094 L 254.3125 281.695312 L 322 213.039062 C 322.199219 212.847656 336.792969 198.449219 336.070312 185.65625 Z M 336.070312 185.65625 "/>
<path style=" stroke:none;fill-rule:nonzero;fill:rgb(100%,97.254902%,93.333334%);fill-opacity:1;" d="M 248.671875 283.992188 L 237.769531 273.273438 L 223.703125 287.832031 Z M 248.671875 283.992188 "/>
<path style=" stroke:none;fill-rule:nonzero;fill:rgb(100%,97.254902%,93.333334%);fill-opacity:1;" d="M 253.648438 288.886719 L 217.28125 294.480469 L 150.625 363.472656 L 178.601562 390.976562 L 180 391 L 173 362 C 173 362 211.558594 344.488281 263.136719 298.207031 Z M 253.648438 288.886719 "/>
<path style=" stroke:none;fill-rule:nonzero;fill:rgb(100%,97.254902%,93.333334%);fill-opacity:1;" d="M 146.734375 367.496094 L 125 390 L 170.472656 390.824219 Z M 146.734375 367.496094 "/>
<path style=" stroke:none;fill-rule:nonzero;fill:rgb(100%,97.254902%,93.333334%);fill-opacity:1;" d="M 325.945312 217.007812 L 258.304688 285.617188 L 267.289062 294.449219 C 268.199219 293.617188 269.078125 292.847656 269.992188 292 C 318.734375 246.800781 328.984375 227.519531 334.167969 207.015625 C 330.28125 212.71875 326.289062 216.679688 325.945312 217.007812 Z M 325.945312 217.007812 "/>
<path style=" stroke:none;fill-rule:nonzero;fill:rgb(100%,97.254902%,93.333334%);fill-opacity:1;" d="M 238.679688 266.320312 L 328.359375 175.695312 C 321.359375 172 310.566406 172.472656 298 177 C 273 186 243 219 243 219 L 218.9375 246.910156 Z M 238.679688 266.320312 "/>
<path style=" stroke:none;fill-rule:nonzero;fill:rgb(100%,97.254902%,93.333334%);fill-opacity:1;" d="M 215.273438 251.160156 L 193 277 L 233.832031 269.398438 Z M 215.273438 251.160156 "/>
<path style=" stroke:none;fill-rule:nonzero;fill:rgb(100%,97.254902%,93.333334%);fill-opacity:1;" d="M 347.992188 157.945312 C 347.464844 157.398438 347.175781 156.65625 347.207031 155.894531 C 347.230469 155.136719 347.566406 154.414062 348.136719 153.910156 L 380.28125 125.121094 C 374.488281 120.710938 367.34375 118 359.503906 118 C 340.449219 118 325 133.449219 325 152.503906 C 325 171.558594 340.449219 187.007812 359.503906 187.007812 C 364.414062 187.007812 369.0625 185.953125 373.296875 184.097656 Z M 347.992188 157.945312 "/>
<path style=" stroke:none;fill-rule:nonzero;fill:rgb(100%,97.254902%,93.333334%);fill-opacity:1;" d="M 354.03125 156.144531 L 378.390625 181.320312 C 387.777344 175.152344 393.992188 164.566406 393.992188 152.496094 C 393.992188 143.3125 390.34375 135.023438 384.496094 128.839844 Z M 385.503906 163.257812 C 385.015625 164.238281 384.023438 164.800781 383 164.800781 C 382.585938 164.800781 382.152344 164.703125 381.753906 164.503906 C 380.367188 163.816406 379.808594 162.136719 380.503906 160.742188 C 383.777344 154.207031 381.585938 149.425781 381.496094 149.222656 C 380.839844 147.839844 381.414062 146.167969 382.792969 145.496094 C 384.167969 144.832031 385.824219 145.367188 386.511719 146.742188 C 386.65625 147.039062 390.078125 154.105469 385.503906 163.257812 Z M 385.503906 163.257812 "/>
</g>
</svg>
