<?xml version="1.0" encoding="UTF-8"?>
<svg xmlns="http://www.w3.org/2000/svg" xmlns:xlink="http://www.w3.org/1999/xlink" width="500pt" height="500pt" viewBox="0 0 500 500" version="1.1">
<g id="surface21375473">
<path style=" stroke:none;fill-rule:nonzero;fill:rgb(60.784316%,34.901962%,71.372551%);fill-opacity:1;" d="M 240 20 C 168.320312 20 110 102.921875 110 204.863281 C 110 255.808594 124.851562 301.546875 148.417969 334.921875 C 142.785156 342.257812 140 351.148438 140 360 C 140 369.722656 143.1875 379.578125 150.019531 387.265625 C 156.851562 394.953125 167.5 400 180 400 C 192.5 400 203.148438 394.953125 209.980469 387.265625 C 216.8125 379.578125 220 369.722656 220 360 C 220 350.277344 216.8125 340.421875 209.980469 332.734375 C 203.148438 325.046875 192.5 320 180 320 C 174.179688 320 168.824219 321.179688 164.003906 323.125 C 143.175781 293.179688 130 251.441406 130 204.863281 C 130 113.953125 179.351562 40 240 40 C 294.191406 40 339.230469 99.09375 348.242188 176.503906 C 355.3125 179.195312 362.328125 182.226562 369.277344 185.566406 C 362.46875 92.667969 307.101562 20 240 20 Z M 220 150 C 207.5 150 196.851562 155.046875 190.019531 162.734375 C 183.1875 170.421875 180 180.277344 180 190 C 180 199.722656 183.1875 209.578125 190.019531 217.265625 C 196.851562 224.953125 207.5 230 220 230 C 232.5 230 243.148438 224.953125 249.980469 217.265625 C 254.25 212.460938 256.941406 206.777344 258.476562 200.839844 C 294.253906 199.300781 334.457031 209.871094 371.425781 232.03125 C 450.367188 279.351562 490.128906 361.867188 460.058594 415.957031 C 449.320312 435.265625 430.570312 448.976562 405.859375 455.585938 C 371.238281 464.867188 328.714844 459.160156 288.125 440.800781 C 282.265625 445.511719 276.066406 449.96875 269.6875 454.277344 C 302.9375 471.066406 338.125 479.960938 370.625 479.960938 C 384.734375 479.960938 398.335938 478.300781 411.035156 474.902344 C 441.105469 466.851562 464.109375 449.824219 477.539062 425.664062 C 512.777344 362.242188 469.789062 267.691406 381.699219 214.882812 C 341.9375 191.03125 298.253906 179.363281 258.867188 180.644531 C 257.441406 174.164062 254.609375 167.941406 249.980469 162.734375 C 243.148438 155.046875 232.5 150 220 150 Z M 220 170 C 227.5 170 231.851562 172.453125 235.019531 176.015625 C 238.1875 179.578125 240 184.722656 240 190 C 240 195.277344 238.1875 200.421875 235.019531 203.984375 C 231.851562 207.546875 227.5 210 220 210 C 212.5 210 208.148438 207.546875 204.980469 203.984375 C 201.8125 200.421875 200 195.277344 200 190 C 200 184.722656 201.8125 179.578125 204.980469 176.015625 C 208.148438 172.453125 212.5 170 220 170 Z M 91.621094 233.320312 C 21.980469 287.71875 -8.980469 369.0625 22.480469 425.664062 C 35.910156 449.824219 58.914062 466.832031 88.984375 474.882812 C 101.695312 478.28125 115.285156 479.960938 129.394531 479.960938 C 167.394531 479.960938 209.109375 467.878906 247.070312 445.117188 C 292.628906 417.804688 325.4375 379.332031 342.128906 339.785156 C 353.675781 339.230469 363.550781 334.5 369.980469 327.265625 C 376.8125 319.578125 380 309.722656 380 300 C 380 290.277344 376.8125 280.421875 369.980469 272.734375 C 363.148438 265.046875 352.5 260 340 260 C 327.5 260 316.851562 265.046875 310.019531 272.734375 C 303.1875 280.421875 300 290.277344 300 300 C 300 309.722656 303.1875 319.578125 310.019531 327.265625 C 313.339844 331 317.601562 334.078125 322.5 336.289062 C 306.816406 370.375 277.152344 403.765625 236.777344 427.96875 C 189.277344 456.457031 135.960938 466.785156 94.140625 455.585938 C 69.421875 448.964844 50.691406 435.265625 39.960938 415.957031 C 14.539062 370.226562 39.148438 304.277344 95.019531 256.347656 C 93.570312 248.835938 92.441406 241.140625 91.621094 233.320312 Z M 340 280 C 347.5 280 351.851562 282.453125 355.019531 286.015625 C 358.1875 289.578125 360 294.722656 360 300 C 360 305.277344 358.1875 310.421875 355.019531 313.984375 C 351.851562 317.546875 347.5 320 340 320 C 332.5 320 328.148438 317.546875 324.980469 313.984375 C 321.8125 310.421875 320 305.277344 320 300 C 320 294.722656 321.8125 289.578125 324.980469 286.015625 C 328.148438 282.453125 332.5 280 340 280 Z M 180 340 C 187.5 340 191.851562 342.453125 195.019531 346.015625 C 198.1875 349.578125 200 354.722656 200 360 C 200 365.277344 198.1875 370.421875 195.019531 373.984375 C 191.851562 377.546875 187.5 380 180 380 C 172.5 380 168.148438 377.546875 164.980469 373.984375 C 161.8125 370.421875 160 365.277344 160 360 C 160 354.722656 161.8125 349.578125 164.980469 346.015625 C 168.148438 342.453125 172.5 340 180 340 Z M 180 340 "/>
</g>
</svg>
